<svg width="14" height="14" viewBox="0 0 14 14" fill="none" xmlns="http://www.w3.org/2000/svg">
<path fill-rule="evenodd" clip-rule="evenodd" d="M1.75 0.25C1.35218 0.25 0.970644 0.408035 0.68934 0.68934C0.408035 0.970644 0.25 1.35218 0.25 1.75V12.25C0.25 12.6478 0.408035 13.0294 0.68934 13.3107C0.970644 13.592 1.35218 13.75 1.75 13.75H12.25C12.6478 13.75 13.0294 13.592 13.3107 13.3107C13.592 13.0294 13.75 12.6478 13.75 12.25V1.75C13.75 1.35218 13.592 0.970644 13.3107 0.68934C13.0294 0.408035 12.6478 0.25 12.25 0.25H1.75ZM10.7125 5.347C10.8532 5.20637 10.9323 5.01559 10.9324 4.81664C10.9325 4.61769 10.8535 4.42686 10.7129 4.28613C10.5722 4.14539 10.3815 4.06629 10.1825 4.06622C9.98356 4.06615 9.79273 4.14512 9.652 4.28575L5.9395 7.99825L4.34875 6.4075C4.27912 6.33782 4.19644 6.28253 4.10544 6.2448C4.01444 6.20707 3.9169 6.18763 3.81839 6.1876C3.61944 6.18753 3.42861 6.26649 3.28787 6.40713C3.14714 6.54776 3.06804 6.73853 3.06797 6.93748C3.0679 7.13644 3.14687 7.32727 3.2875 7.468L5.356 9.5365C5.43261 9.61315 5.52358 9.67395 5.6237 9.71544C5.72382 9.75692 5.83113 9.77827 5.9395 9.77827C6.04787 9.77827 6.15518 9.75692 6.2553 9.71544C6.35542 9.67395 6.44639 9.61315 6.523 9.5365L10.7125 5.347Z" fill="#F28D35"/>
</svg>
